<svg xmlns="http://www.w3.org/2000/svg" width="192" height="192" viewBox="0 0 192 192" shape-rendering="crispEdges">
  <rect width="192" height="192" fill="none"/>
  <path d="M 95 43 L 100 39 L 116 45 L 94 67 L 97 65 L 73 47 Z" fill="#1d3237"/>
  <path d="M 92 37 L 99 35 L 112 40 L 88 60 L 99 61 L 80 43 Z" fill="#709ba6"/>
  <path d="M 107 50 L 88 49 L 84 55 L 110 56 Z" fill="#9cc4ca"/>
  <path d="M 119 29 L 76 28 L 68 57 L 125 57 Z" fill="#d9f5ed"/>
  <path d="M 84 10 L 102 6 L 114 17 L 100 30 L 85 29 L 74 14 Z" fill="#1d3237"/>
  <path d="M 85 12 L 101 9 L 111 14 L 97 26 L 87 26 L 77 13 Z" fill="#9cc4ca"/>
  <path d="M 97 20 L 94 18 L 88 32 L 95 34 Z" fill="#d9f5ed"/>
  <rect x="83" y="-8" width="5" height="17" fill="#efcf54"/>
  <rect x="91" y="-12" width="5" height="22" fill="#efcf54"/>
  <rect x="98" y="-9" width="5" height="18" fill="#efcf54"/>
  <path d="M 111 61 L 133 67 L 141 78 L 116 80 Z" fill="#456d77"/>
  <rect x="87" y="16" width="4" height="5" fill="#1d3237"/>
  <rect x="99" y="16" width="4" height="5" fill="#1d3237"/>
  <rect x="89" y="17" width="2" height="2" fill="#ffffff"/>
  <rect x="101" y="17" width="2" height="2" fill="#ffffff"/>
  <rect x="88" y="23" width="11" height="3" fill="#1d3237"/>
  <rect x="86" y="59" width="7" height="7" fill="#1d3237"/>
  <rect x="102" y="59" width="7" height="7" fill="#1d3237"/>
  <rect x="85" y="63" width="17" height="4" fill="#eee8de"/>
  <rect x="101" y="63" width="17" height="4" fill="#eee8de"/>

</svg>
