<svg xmlns="http://www.w3.org/2000/svg" width="192" height="192" viewBox="0 0 192 192" shape-rendering="crispEdges">
  <rect width="192" height="192" fill="none"/>
  <path d="M 83 90 L 113 86 L 129 114 L 107 136 L 85 134 L 61 116 Z" fill="#1d3237"/>
  <path d="M 80 84 L 112 82 L 125 109 L 101 129 L 87 130 L 68 112 Z" fill="#709ba6"/>
  <path d="M 95 97 L 101 96 L 97 124 L 98 125 Z" fill="#9cc4ca"/>
  <path d="M 107 98 L 89 97 L 81 126 L 113 126 Z" fill="#d9f5ed"/>
  <path d="M 68 55 L 115 51 L 127 88 L 113 101 L 69 100 L 58 85 Z" fill="#1d3237"/>
  <path d="M 69 57 L 114 54 L 124 85 L 110 97 L 71 97 L 61 84 Z" fill="#9cc4ca"/>
  <path d="M 81 65 L 107 63 L 101 77 L 79 79 Z" fill="#d9f5ed"/>
  <rect x="69" y="37" width="18" height="21" fill="#709ba6"/>
  <rect x="96" y="33" width="18" height="24" fill="#709ba6"/>
  <path d="M 125 111 L 169 101 L 174 116 L 129 128 Z" fill="#efcf54"/>
  <rect x="80" y="76" width="7" height="8" fill="#1d3237"/>
  <rect x="103" y="75" width="7" height="8" fill="#1d3237"/>
  <rect x="82" y="77" width="2" height="2" fill="#ffffff"/>
  <rect x="105" y="76" width="2" height="2" fill="#ffffff"/>
  <rect x="82" y="92" width="21" height="5" fill="#1d3237"/>
  <rect x="80" y="128" width="14" height="14" fill="#1d3237"/>
  <rect x="108" y="128" width="14" height="14" fill="#1d3237"/>
  <rect x="78" y="140" width="24" height="6" fill="#eee8de"/>
  <rect x="105" y="140" width="24" height="6" fill="#eee8de"/>

</svg>
