<svg xmlns="http://www.w3.org/2000/svg" width="192" height="192" viewBox="0 0 192 192" shape-rendering="crispEdges">
  <rect width="192" height="192" fill="none"/>
  <path d="M 49 102 L 146 98 L 162 147 L 140 169 L 51 167 L 27 149 Z" fill="#25331d"/>
  <path d="M 46 96 L 145 94 L 158 142 L 134 162 L 53 163 L 34 145 Z" fill="#91bc5c"/>
  <path d="M 61 109 L 134 108 L 130 157 L 64 158 Z" fill="#b7d875"/>
  <path d="M 73 131 L 122 130 L 114 159 L 79 159 Z" fill="#f6eeac"/>
  <path d="M 66 59 L 112 55 L 124 92 L 110 105 L 67 104 L 56 89 Z" fill="#25331d"/>
  <path d="M 67 61 L 111 58 L 121 89 L 107 101 L 69 101 L 59 88 Z" fill="#b7d875"/>
  <path d="M 79 69 L 104 67 L 98 81 L 77 83 Z" fill="#f6eeac"/>
  <rect x="75" y="24" width="12" height="40" fill="#447bc8"/>
  <rect x="92" y="15" width="12" height="50" fill="#447bc8"/>
  <rect x="91" y="21" width="12" height="42" fill="#447bc8"/>
  <path d="M 157 120 L 200 126 L 208 137 L 162 139 Z" fill="#55772f"/>
  <rect x="78" y="80" width="9" height="10" fill="#25331d"/>
  <rect x="100" y="79" width="9" height="10" fill="#25331d"/>
  <rect x="80" y="81" width="2" height="2" fill="#ffffff"/>
  <rect x="102" y="80" width="2" height="2" fill="#ffffff"/>
  <rect x="76" y="96" width="26" height="6" fill="#25331d"/>
  <rect x="63" y="161" width="17" height="17" fill="#25331d"/>
  <rect x="121" y="161" width="17" height="17" fill="#25331d"/>
  <rect x="59" y="177" width="27" height="8" fill="#eee8de"/>
  <rect x="116" y="177" width="27" height="8" fill="#eee8de"/>

</svg>
