<svg xmlns="http://www.w3.org/2000/svg" width="192" height="192" viewBox="0 0 192 192" shape-rendering="crispEdges">
  <rect width="192" height="192" fill="none"/>
  <path d="M 77 80 L 118 76 L 134 90 L 112 112 L 79 110 L 55 92 Z" fill="#25331d"/>
  <path d="M 74 74 L 117 72 L 130 85 L 106 105 L 81 106 L 62 88 Z" fill="#91bc5c"/>
  <path d="M 89 87 L 106 86 L 102 100 L 92 101 Z" fill="#b7d875"/>
  <path d="M 101 74 L 94 73 L 86 102 L 107 102 Z" fill="#f6eeac"/>
  <path d="M 77 48 L 104 44 L 116 71 L 102 84 L 78 83 L 67 68 Z" fill="#25331d"/>
  <path d="M 78 50 L 103 47 L 113 68 L 99 80 L 80 80 L 70 67 Z" fill="#b7d875"/>
  <path d="M 90 58 L 96 56 L 90 70 L 88 72 Z" fill="#f6eeac"/>
  <path d="M 79 51 L 90 20 L 97 56 Z" fill="#447bc8"/>
  <path d="M 102 49 L 89 17 L 83 57 Z" fill="#447bc8"/>
  <path d="M 127 94 L 154 80 L 150 103 L 131 112 Z" fill="#447bc8"/>
  <rect x="83" y="64" width="6" height="7" fill="#25331d"/>
  <rect x="98" y="63" width="6" height="7" fill="#25331d"/>
  <rect x="85" y="65" width="2" height="2" fill="#ffffff"/>
  <rect x="100" y="64" width="2" height="2" fill="#ffffff"/>
  <rect x="82" y="76" width="18" height="4" fill="#25331d"/>
  <rect x="77" y="104" width="11" height="11" fill="#25331d"/>
  <rect x="110" y="104" width="11" height="11" fill="#25331d"/>
  <rect x="75" y="113" width="21" height="5" fill="#eee8de"/>
  <rect x="107" y="113" width="21" height="5" fill="#eee8de"/>

</svg>
