<svg xmlns="http://www.w3.org/2000/svg" width="192" height="192" viewBox="0 0 192 192" shape-rendering="crispEdges">
  <rect width="192" height="192" fill="none"/>
  <path d="M 79 64 L 117 60 L 133 68 L 111 90 L 81 88 L 57 70 Z" fill="#173b38"/>
  <path d="M 76 58 L 116 56 L 129 63 L 105 83 L 83 84 L 64 66 Z" fill="#42a7a0"/>
  <path d="M 91 71 L 105 70 L 101 78 L 94 79 Z" fill="#75c7bd"/>
  <path d="M 103 52 L 93 51 L 85 80 L 109 80 Z" fill="#f7e39a"/>
  <path d="M 84 35 L 99 31 L 111 48 L 97 61 L 85 60 L 74 45 Z" fill="#173b38"/>
  <path d="M 85 37 L 98 34 L 108 45 L 94 57 L 87 57 L 77 44 Z" fill="#75c7bd"/>
  <path d="M 97 45 L 91 43 L 85 57 L 95 59 Z" fill="#f7e39a"/>
  <path d="M 80 41 L 63 27 L 69 51 Z" fill="#cf5555"/>
  <path d="M 105 39 L 122 21 L 117 51 Z" fill="#cf5555"/>
  <path d="M 54 88 L 35 74 L 43 107 Z" fill="#cf5555"/>
  <rect x="86" y="45" width="5" height="6" fill="#173b38"/>
  <rect x="97" y="44" width="5" height="6" fill="#173b38"/>
  <rect x="88" y="46" width="2" height="2" fill="#ffffff"/>
  <rect x="99" y="45" width="2" height="2" fill="#ffffff"/>
  <rect x="85" y="54" width="14" height="3" fill="#173b38"/>
  <rect x="78" y="82" width="9" height="9" fill="#173b38"/>
  <rect x="110" y="82" width="9" height="9" fill="#173b38"/>
  <rect x="76" y="88" width="19" height="4" fill="#eee8de"/>
  <rect x="107" y="88" width="19" height="4" fill="#eee8de"/>

</svg>
