<svg xmlns="http://www.w3.org/2000/svg" width="192" height="192" viewBox="0 0 192 192" shape-rendering="crispEdges">
  <rect width="192" height="192" fill="none"/>
  <path d="M 64 82 L 131 78 L 147 110 L 125 132 L 66 130 L 42 112 Z" fill="#25233f"/>
  <path d="M 61 76 L 130 74 L 143 105 L 119 125 L 68 126 L 49 108 Z" fill="#7f76c9"/>
  <path d="M 76 89 L 119 88 L 115 120 L 79 121 Z" fill="#aaa4e8"/>
  <path d="M 88 94 L 107 93 L 99 122 L 94 122 Z" fill="#d8eff7"/>
  <path d="M 68 45 L 112 41 L 124 72 L 110 85 L 69 84 L 58 69 Z" fill="#25233f"/>
  <path d="M 69 47 L 111 44 L 121 69 L 107 81 L 71 81 L 61 68 Z" fill="#aaa4e8"/>
  <path d="M 81 55 L 104 53 L 98 67 L 79 69 Z" fill="#d8eff7"/>
  <rect x="69" y="27" width="17" height="20" fill="#7f76c9"/>
  <rect x="95" y="24" width="17" height="23" fill="#7f76c9"/>
  <path d="M 143 103 L 169 93 L 174 108 L 147 120 Z" fill="#dfbf3e"/>
  <rect x="79" y="63" width="7" height="8" fill="#25233f"/>
  <rect x="101" y="62" width="7" height="8" fill="#25233f"/>
  <rect x="81" y="64" width="2" height="2" fill="#ffffff"/>
  <rect x="103" y="63" width="2" height="2" fill="#ffffff"/>
  <rect x="80" y="76" width="20" height="5" fill="#25233f"/>
  <rect x="70" y="124" width="13" height="13" fill="#25233f"/>
  <rect x="115" y="124" width="13" height="13" fill="#25233f"/>
  <rect x="67" y="135" width="23" height="6" fill="#eee8de"/>
  <rect x="111" y="135" width="23" height="6" fill="#eee8de"/>

</svg>
