<svg xmlns="http://www.w3.org/2000/svg" width="192" height="192" viewBox="0 0 192 192" shape-rendering="crispEdges">
  <rect width="192" height="192" fill="none"/>
  <path d="M 96 59 L 99 55 L 115 57 L 93 79 L 98 77 L 74 59 Z" fill="#25233f"/>
  <path d="M 93 53 L 98 51 L 111 52 L 87 72 L 100 73 L 81 55 Z" fill="#7f76c9"/>
  <path d="M 108 66 L 87 65 L 83 67 L 111 68 Z" fill="#aaa4e8"/>
  <path d="M 120 41 L 75 40 L 67 69 L 126 69 Z" fill="#d8eff7"/>
  <path d="M 82 30 L 104 26 L 116 38 L 102 51 L 83 50 L 72 35 Z" fill="#25233f"/>
  <path d="M 83 32 L 103 29 L 113 35 L 99 47 L 85 47 L 75 34 Z" fill="#aaa4e8"/>
  <path d="M 95 40 L 96 38 L 90 52 L 93 54 Z" fill="#d8eff7"/>
  <path d="M 84 33 L 89 9 L 94 38 Z" fill="#dfbf3e"/>
  <path d="M 102 31 L 96 7 L 92 39 Z" fill="#dfbf3e"/>
  <path d="M 108 73 L 124 59 L 120 82 L 112 91 Z" fill="#dfbf3e"/>
  <rect x="86" y="37" width="4" height="5" fill="#25233f"/>
  <rect x="100" y="36" width="4" height="5" fill="#25233f"/>
  <rect x="88" y="38" width="2" height="2" fill="#ffffff"/>
  <rect x="102" y="37" width="2" height="2" fill="#ffffff"/>
  <rect x="87" y="44" width="12" height="3" fill="#25233f"/>
  <rect x="86" y="71" width="8" height="8" fill="#25233f"/>
  <rect x="102" y="71" width="8" height="8" fill="#25233f"/>
  <rect x="85" y="76" width="18" height="4" fill="#eee8de"/>
  <rect x="101" y="76" width="18" height="4" fill="#eee8de"/>

</svg>
